<?xml version="1.0" encoding="UTF-8"?>
<svg version="1.1" xmlns="http://www.w3.org/2000/svg" width="64" height="64">
<path d="M0 0 C0.886875 0.103125 1.77375 0.20625 2.6875 0.3125 C5.33251794 4.12190084 7.30148826 8.35730535 9.375 12.5 C9.69533203 13.12841797 10.01566406 13.75683594 10.34570312 14.40429688 C12.6875 19.07291111 12.6875 19.07291111 12.6875 21.3125 C13.3475 21.3125 14.0075 21.3125 14.6875 21.3125 C14.66429687 20.69503906 14.64109375 20.07757812 14.6171875 19.44140625 C14.48916892 13.43367697 15.11909253 8.11000618 16.6875 2.3125 C18.0075 1.9825 19.3275 1.6525 20.6875 1.3125 C23.25574006 5.16486009 22.51485049 7.67691166 21.8125 12 C21.70808594 12.70189453 21.60367188 13.40378906 21.49609375 14.12695312 C21.23716196 15.85708829 20.96372343 17.58504118 20.6875 19.3125 C21.42355469 18.43464844 22.15960938 17.55679687 22.91796875 16.65234375 C23.90277445 15.51747242 24.88849987 14.38339874 25.875 13.25 C26.35775391 12.66927734 26.84050781 12.08855469 27.33789062 11.49023438 C28.79296875 9.83984375 28.79296875 9.83984375 31.6875 7.3125 C34.55078125 7.44140625 34.55078125 7.44140625 36.6875 8.3125 C37.421875 9.97265625 37.421875 9.97265625 37.6875 12.3125 C36.140625 14.93359375 36.140625 14.93359375 33.9375 17.75 C31.28650077 21.17818066 28.84498507 24.55055609 26.6875 28.3125 C27.48414063 28.0959375 28.28078125 27.879375 29.1015625 27.65625 C30.16117188 27.3778125 31.22078125 27.099375 32.3125 26.8125 C33.87871094 26.39484375 33.87871094 26.39484375 35.4765625 25.96875 C38.64437418 25.32131404 41.46491467 25.1963708 44.6875 25.3125 C45.1825 27.2925 45.1825 27.2925 45.6875 29.3125 C44.27148286 29.79358275 42.85465563 30.27228141 41.4375 30.75 C40.64859375 31.01683594 39.8596875 31.28367187 39.046875 31.55859375 C36.9522745 32.2278949 34.82078033 32.77917992 32.6875 33.3125 C36.6475 34.3025 40.6075 35.2925 44.6875 36.3125 C45.1825 38.2925 45.1825 38.2925 45.6875 40.3125 C41.16095127 42.71858135 38.26537305 42.12581495 33.375 40.9375 C32.12074219 40.64101563 30.86648437 40.34453125 29.57421875 40.0390625 C28.62160156 39.79929688 27.66898438 39.55953125 26.6875 39.3125 C27.29078125 39.91578125 27.8940625 40.5190625 28.515625 41.140625 C32.23958333 44.86458333 35.96354167 48.58854167 39.6875 52.3125 C39.1925 53.3025 39.1925 53.3025 38.6875 54.3125 C35.24799636 53.70051624 33.17185515 52.39191153 30.4375 50.25 C29.73109375 49.70214844 29.0246875 49.15429688 28.296875 48.58984375 C27.76578125 48.16832031 27.2346875 47.74679688 26.6875 47.3125 C27.22890625 47.98345703 27.22890625 47.98345703 27.78125 48.66796875 C31.61888937 53.66756003 31.61888937 53.66756003 32 57.25 C31.896875 57.930625 31.79375 58.61125 31.6875 59.3125 C29.48828125 59.71875 29.48828125 59.71875 26.6875 59.3125 C24.81735879 57.14801225 23.37237974 55.20930418 21.875 52.8125 C21.46830078 52.19246094 21.06160156 51.57242188 20.64257812 50.93359375 C19.64199445 49.40328931 18.66264662 47.85913778 17.6875 46.3125 C17.55472656 47.44429687 17.42195313 48.57609375 17.28515625 49.7421875 C17.1069658 51.22398179 16.92856971 52.70575136 16.75 54.1875 C16.66298828 54.93386719 16.57597656 55.68023437 16.48632812 56.44921875 C15.80078125 62.0859375 15.80078125 62.0859375 14.6875 64.3125 C13.0375 63.9825 11.3875 63.6525 9.6875 63.3125 C9.39219162 56.81571562 10.51456111 50.6903552 11.6875 44.3125 C10.67429687 45.66794922 10.67429687 45.66794922 9.640625 47.05078125 C8.73987039 48.24240454 7.83881271 49.43379879 6.9375 50.625 C6.4940625 51.21990234 6.050625 51.81480469 5.59375 52.42773438 C3.2127529 55.56154673 1.03636555 58.14512674 -2.3125 60.3125 C-2.9725 59.9825 -3.6325 59.6525 -4.3125 59.3125 C-3.83362335 54.54985403 -1.81761358 52.08608348 1.25 48.5 C2.07628906 47.52417969 2.90257813 46.54835937 3.75390625 45.54296875 C4.39199219 44.80691406 5.03007812 44.07085937 5.6875 43.3125 C1.91737183 44.56920939 -0.76957266 46.70469224 -3.9609375 49.03515625 C-6.64171839 50.49132793 -8.30795535 50.56199399 -11.3125 50.3125 C-11.3125 48.9925 -11.3125 47.6725 -11.3125 46.3125 C-9.3359375 44.49609375 -9.3359375 44.49609375 -6.6875 42.75 C-5.39972656 41.88181641 -5.39972656 41.88181641 -4.0859375 40.99609375 C-1.25210116 39.27583535 1.72238046 37.79505977 4.6875 36.3125 C-2.5725 35.6525 -9.8325 34.9925 -17.3125 34.3125 C-17.6425 32.9925 -17.9725 31.6725 -18.3125 30.3125 C-15.33431366 29.43150265 -12.85957135 29.24544836 -9.765625 29.43359375 C-8.92128906 29.48193359 -8.07695312 29.53027344 -7.20703125 29.58007812 C-6.33433594 29.63615234 -5.46164062 29.69222656 -4.5625 29.75 C-3.67433594 29.80220703 -2.78617188 29.85441406 -1.87109375 29.90820312 C0.31549196 30.03751733 2.50157894 30.17246642 4.6875 30.3125 C3.49253906 29.53326172 3.49253906 29.53326172 2.2734375 28.73828125 C-3.16049362 25.16193486 -8.44709779 21.63730197 -13.3125 17.3125 C-12.9825 15.6625 -12.6525 14.0125 -12.3125 12.3125 C-7.31567547 12.7740835 -4.7370074 14.14028424 -0.9375 17.375 C-0.06351563 18.10847656 0.81046875 18.84195312 1.7109375 19.59765625 C2.36320312 20.16355469 3.01546875 20.72945312 3.6875 21.3125 C2.29196471 17.12589413 0.09644304 13.34124701 -2.04882812 9.49414062 C-3.01171875 7.66015625 -3.01171875 7.66015625 -4.3125 4.3125 C-3.04547151 0.4115502 -3.04547151 0.4115502 0 0 Z " fill="#D87757" transform="translate(18.3125,-0.3125)"/>
</svg>
